<svg xmlns="http://www.w3.org/2000/svg" version="1.1" xmlns:xlink="http://www.w3.org/1999/xlink" xmlns:svgjs="http://svgjs.dev/svgjs" viewBox="0 0 800 800" id="qqquad"><g shape-rendering="crispEdges" stroke-linejoin="round" fill="none" stroke-width="1" stroke="hsl(220, 2%, 28%)" style="--darkreader-inline-stroke: var(--darkreader-text-464749, #bbb5ac);" data-darkreader-inline-stroke=""><polygon points="600,0 800,200 800,0"></polygon><polygon points="600,0 600,200 400,200"></polygon><polygon points="500,300 500,200 600,200"></polygon><polygon points="500,300 400,200 500,200"></polygon><polygon points="400,400 500,300 400,300"></polygon><polygon points="500,300 600,400 600,300"></polygon><polygon points="600,200 600,400 800,200"></polygon><polygon points="200,200 200,0 400,200"></polygon><polygon points="200,0 0,200 200,200"></polygon><polygon points="0,200 200,400 0,400"></polygon><polygon points="400,200 300,300 400,300"></polygon><polygon points="300,300 200,300 200,200"></polygon><polygon points="300,300 300,400 200,300"></polygon><polygon points="400,300 300,400 400,400"></polygon><polygon points="200,600 400,600 400,400"></polygon><polygon points="200,400 200,600 0,600"></polygon><polygon points="0,800 200,600 200,800"></polygon><polygon points="200,600 200,800 400,600"></polygon><polygon points="800,600 600,600 800,400"></polygon><polygon points="500,400 600,400 600,500"></polygon><polygon points="400,500 400,400 500,400"></polygon><polygon points="500,600 500,500 400,600"></polygon><polygon points="600,500 500,600 500,500"></polygon><polygon points="400,600 600,800 400,800"></polygon><polygon points="800,600 800,800 600,800"></polygon></g><g fill="hsl(220, 62%, 45%)" stroke-width="3" stroke="hsl(220, 43%, 13%)" style="--darkreader-inline-fill: var(--darkreader-text-2c5bba, #669fdb); --darkreader-inline-stroke: var(--darkreader-text-131c2f, #d3cfca);" data-darkreader-inline-fill="" data-darkreader-inline-stroke=""></g></svg>